PathFileType	4	(X/Y/Z)	F:\MotionCapture\20160217\3\Generated_files\2_Test03-Dynamic.trc
DataRate	CameraRate	NumFrames	NumMarkers	Units	OrigDataRate	OrigDataStartFrame	OrigNumFrames
120.00	120.00	       5	39	mm	120.00	1	       841
Frame#	Time	Top.Head			Front.Head			Rear.Head			R.Shoulder			R.Offset			R.Elbow			R.Wrist			L.Shoulder			L.Elbow			L.Wrist			R.ASIS			L.ASIS			V.Sacral			R.Thigh			R.Knee			R.Shank			R.Ankle			R.Heel			R.Toe			L.Thigh			L.Knee			L.Shank			L.Ankle			L.Heel			L.Toe			R1			R2			R3			R4			R5			R6			R7			L1			L2			L3			L4			L5			L6			L7			V_Mid_ASIS			V_Pelvis_Origin			V_R.Hip_JC			V_L.Hip_JC			V_R.Knee_JC			V_L.Knee_JC			V_R.Ankle_JC			V_L.Ankle_JC			V_Mid_Hip			V_Mid_Shoulder			V_R.Hand			V_L.Hand			V_R.Toe_Offset_Static			V_L.Toe_Offset_Static			V_R.Toe_Offset			V_L.Toe_Offset			
		X1	Y1	Z1	X2	Y2	Z2	X3	Y3	Z3	X4	Y4	Z4	X5	Y5	Z5	X6	Y6	Z6	X7	Y7	Z7	X8	Y8	Z8	X9	Y9	Z9	X10	Y10	Z10	X11	Y11	Z11	X12	Y12	Z12	X13	Y13	Z13	X14	Y14	Z14	X15	Y15	Z15	X16	Y16	Z16	X17	Y17	Z17	X18	Y18	Z18	X19	Y19	Z19	X20	Y20	Z20	X21	Y21	Z21	X22	Y22	Z22	X23	Y23	Z23	X24	Y24	Z24	X25	Y25	Z25	X26	Y26	Z26	X27	Y27	Z27	X28	Y28	Z28	X29	Y29	Z29	X30	Y30	Z30	X31	Y31	Z31	X32	Y32	Z32	X33	Y33	Z33	X34	Y34	Z34	X35	Y35	Z35	X36	Y36	Z36	X37	Y37	Z37	X38	Y38	Z38	X39	Y39	Z39	

1	0.000	2415.52368	135.57999	1735.21606	2310.01440	120.25930	1644.19287	2528.21851	142.79117	1674.03711	2462.85034	331.44684	1436.78003	2612.52124	72.02057	1278.84167	2519.25098	429.50421	1117.37610	2447.31226	428.12186	861.80634	2477.11182	-78.55707	1433.64612	2498.78979	-175.07964	1111.90662	2410.97925	-199.08737	873.15863	2382.08911	275.49060	963.12653	2379.65698	-13.29196	967.24744	2606.63550	129.83669	947.51312	2344.18579	244.59863	582.15198	2422.11304	298.41437	470.82681	2442.17041	232.23175	236.33197	2515.64624	313.30017	78.97232	2579.88696	250.87364	50.53943	2370.78271	297.44577	48.50343	2344.97827	22.72771	634.04706	2440.54565	-30.74546	476.45486	2430.43848	40.15926	332.81668	2508.93237	-27.63018	68.44254	2573.46484	29.51984	50.84118	2368.72705	-25.66596	47.07581	2321.86060	277.24414	44.43224	2364.58911	260.23355	53.45396	2461.13330	223.07663	60.18784	2537.39233	221.58018	49.01651	2550.59277	295.13095	52.91380	2474.26904	322.69452	45.82473	2408.33398	338.24350	44.00993	2322.26538	0.95081	41.72138	2358.11890	12.56532	52.09860	2451.43213	56.31905	58.39151	2536.82251	60.47978	50.96787	2548.51147	-10.81245	49.28062	2474.93018	-41.80846	40.13031	2412.57031	-57.96562	44.19793																																																	3145.02808	241.39993	-141.10258	2890.81934	153.85161	-102.05022	
2	0.008	2415.79810	135.41399	1735.50720	2309.90527	119.37997	1644.08875	2528.12842	143.38115	1674.07764	2463.21802	331.24905	1436.78748	2612.49146	71.70556	1278.94934	2518.80615	428.70917	1116.68530	2444.01709	426.58734	862.05090	2476.75684	-78.68030	1433.66223	2498.81738	-175.11105	1111.84070	2411.60889	-197.80038	872.56677	2382.32813	275.51605	963.09406	2379.53882	-13.24303	967.10089	2606.81177	129.44373	947.62463	2344.48779	244.55937	582.12128	2422.46216	298.39474	470.90891	2442.44995	232.07777	236.42419	2515.66895	313.25531	78.98803	2579.90918	250.82993	50.53598	2370.76855	297.39886	48.48421	2345.72681	22.42047	633.97156	2441.05518	-30.72172	476.45227	2430.07080	40.15017	333.11920	2508.98560	-27.64003	68.41107	2573.45166	29.51555	50.90984	2368.64575	-25.56819	47.01792	2321.85376	277.39896	44.37923	2364.60840	260.23126	53.41324	2461.25000	222.99426	60.10218	2537.42969	221.49001	48.98211	2550.57568	295.09543	52.91525	2474.39160	322.89236	45.77543	2408.35278	338.28268	43.89288	2322.11011	0.83854	41.57995	2358.00781	12.69357	51.94585	2451.36865	56.31949	58.26944	2537.09961	60.88139	51.52317	2548.01440	-10.70506	49.20906	2474.91895	-41.79050	40.14985	2412.56006	-58.01546	44.10482																																																	3897.92993	-299.13019	1680.27283	
3	0.017	2415.86255	135.29886	1735.56726	2311.07007	118.49152	1644.09229	2527.95825	143.84138	1674.05090	2463.51465	331.20319	1436.73865	2612.34521	71.31764	1279.00586	2519.08569	428.14975	1116.04395	2440.97876	425.63599	862.35803	2476.30762	-78.91808	1433.71521	2498.84570	-175.11658	1111.80969	2411.50220	-196.75307	872.46356	2382.54102	275.55823	963.01843	2379.35498	-13.15390	967.01056	2606.93457	129.17175	947.76471	2345.02905	244.63907	582.15778	2423.01978	298.44345	470.95142	2442.79980	232.00558	236.45682	2515.70874	313.22726	78.98270	2579.95532	250.77039	50.53525	2370.77905	297.42261	48.42896	2345.64795	22.30678	633.99127	2441.63745	-30.76270	476.60187	2429.83203	39.48542	333.40717	2509.02905	-27.77116	68.38195	2573.37842	29.49784	50.90031	2368.62671	-25.60050	46.94608	2321.89209	277.40326	44.29857	2364.67310	260.17361	53.40546	2461.24902	223.01575	60.09672	2537.51660	221.40987	49.01667	2550.59375	294.99274	52.91576	2474.34033	322.66663	45.87029	2408.32397	338.33914	44.04048	2321.82983	0.74055	41.33710	2357.26685	12.95759	51.80803	2451.32300	56.25176	58.30355	2536.76318	60.27623	51.13121	2548.00659	-10.75879	49.21206	2471.93140	-39.06991	36.05590	2413.48047	-59.28823	44.71334																																																	3898.16821	-299.26620	1680.42737	3066.20605	221.82954	-115.33591	2890.35547	153.72662	-101.99839	
4	0.025	2415.74292	135.14078	1735.58923	2310.50464	116.80813	1644.57617	2527.72778	144.90860	1673.95984	2463.83374	330.95782	1436.83630	2612.24854	70.92303	1279.08997	2518.38184	427.56747	1115.19629	2437.67773	424.46570	862.57983	2475.61646	-79.12582	1433.70789	2498.68433	-175.32413	1111.69202	2411.18311	-195.81169	871.95953	2382.82422	275.55698	962.98914	2378.20532	-13.39582	967.14679	2607.01538	129.03737	947.95776	2345.55200	244.70302	582.15845	2424.01172	298.49548	471.01248	2443.09790	231.76067	236.67513	2515.70483	313.22134	78.94634	2579.99292	250.72787	50.53220	2370.72974	297.43857	48.37172	2345.63770	21.97121	634.06586	2441.99316	-30.81479	476.61047	2430.19531	39.40948	333.55020	2509.07520	-27.78765	68.47302	2573.38477	29.47418	50.94113	2368.55566	-25.52557	46.88278	2321.89038	277.48843	44.25710	2364.33130	260.02997	53.33365	2461.22266	223.02106	60.09245	2537.48877	221.33086	48.89930	2550.64941	295.02567	52.94851	2474.36279	322.67157	45.86314	2408.31201	338.29199	43.86080	2321.69971	0.48673	41.09157	2357.27979	12.91954	51.73698	2451.40698	56.15356	58.21046	2537.02515	60.84408	51.59875	2547.93140	-10.74126	49.17326	2474.89355	-41.84127	40.05440	2412.65234	-58.25354	43.94840																																																	3065.61182	221.54582	-114.92148	2890.49976	153.73659	-102.01414	3164.11230	155.09338	317.41415	
5	0.033	2415.81714	134.99545	1735.68799	2311.72754	115.80882	1644.65552	2527.71997	146.19809	1673.94006	2464.07104	330.61292	1436.85706	2612.12988	70.43674	1279.15161	2517.65698	427.47690	1114.04053	2433.38647	422.71933	862.64386	2475.12598	-79.35625	1433.75696	2498.48999	-175.36060	1111.87622	2410.92480	-194.09853	871.75037	2383.06958	275.49847	962.99341	2378.06689	-13.33250	967.15247	2607.15601	128.88411	948.26672	2346.21729	244.86130	582.17328	2424.70581	298.53580	471.28036	2442.99023	232.18979	236.99316	2515.73730	313.23880	78.96662	2580.06323	250.71733	50.55857	2370.69531	297.46613	48.35186	2345.94189	21.57343	633.91205	2442.29443	-30.83537	476.70190	2430.81567	39.23439	333.70752	2509.14307	-27.90014	68.51878	2573.32153	29.47961	50.92558	2368.54053	-25.52883	46.81398	2321.94458	277.54489	44.23066	2364.37012	260.04605	53.30888	2461.22607	222.91046	60.12100	2537.54883	221.37941	49.00397	2550.65674	295.02240	52.86492	2474.39795	322.72849	45.79055	2408.40698	338.48090	43.89321	2321.50830	0.40614	41.05010	2357.35205	12.87420	51.69453	2451.24365	56.27462	58.27230	2536.98071	60.81785	51.59978	2547.92090	-10.77983	49.18957	2474.88184	-41.83007	40.06322	2412.57178	-58.18395	43.92511																																																	3066.13745	221.60544	-115.03833	2891.01660	153.76631	-102.12819	3163.64478	155.16377	317.48697	
